<svg width="447" height="54" viewBox="0 0 447 54" fill="none" xmlns="http://www.w3.org/2000/svg">
<rect width="447" height="54" rx="5" fill="#FAE0E1"/>
<path d="M170.908 33.168C171.655 33.168 172.322 33.042 172.91 32.79C173.507 32.538 174.011 32.2067 174.422 31.796C174.833 31.376 175.127 30.9187 175.304 30.424L173.596 29.626C173.391 30.1487 173.055 30.5827 172.588 30.928C172.131 31.264 171.571 31.432 170.908 31.432C170.255 31.432 169.681 31.278 169.186 30.97C168.691 30.662 168.304 30.2373 168.024 29.696C167.744 29.1453 167.604 28.506 167.604 27.778C167.604 27.05 167.744 26.4153 168.024 25.874C168.304 25.3233 168.691 24.8987 169.186 24.6C169.681 24.292 170.255 24.138 170.908 24.138C171.571 24.138 172.131 24.3107 172.588 24.656C173.055 24.992 173.391 25.4213 173.596 25.944L175.304 25.146C175.127 24.6513 174.833 24.1987 174.422 23.788C174.011 23.368 173.507 23.032 172.91 22.78C172.322 22.528 171.655 22.402 170.908 22.402C170.161 22.402 169.471 22.5373 168.836 22.808C168.201 23.0693 167.651 23.4427 167.184 23.928C166.717 24.404 166.353 24.9733 166.092 25.636C165.831 26.2893 165.7 27.0033 165.7 27.778C165.7 28.5527 165.831 29.2713 166.092 29.934C166.353 30.5873 166.717 31.1567 167.184 31.642C167.651 32.1273 168.201 32.5053 168.836 32.776C169.471 33.0373 170.161 33.168 170.908 33.168ZM180.283 33.168C181.02 33.168 181.692 33 182.299 32.664C182.906 32.3187 183.391 31.8473 183.755 31.25C184.119 30.6433 184.301 29.9573 184.301 29.192C184.301 28.4267 184.119 27.7453 183.755 27.148C183.4 26.5507 182.92 26.0793 182.313 25.734C181.706 25.3887 181.03 25.216 180.283 25.216C179.527 25.216 178.846 25.3887 178.239 25.734C177.632 26.0793 177.147 26.5507 176.783 27.148C176.428 27.7453 176.251 28.4267 176.251 29.192C176.251 29.9573 176.428 30.6387 176.783 31.236C177.147 31.8333 177.632 32.3047 178.239 32.65C178.855 32.9953 179.536 33.168 180.283 33.168ZM180.283 31.488C179.872 31.488 179.504 31.39 179.177 31.194C178.86 30.998 178.608 30.7273 178.421 30.382C178.244 30.0273 178.155 29.6307 178.155 29.192C178.155 28.7533 178.244 28.3613 178.421 28.016C178.608 27.6707 178.86 27.4 179.177 27.204C179.504 26.9987 179.872 26.896 180.283 26.896C180.694 26.896 181.053 26.9987 181.361 27.204C181.678 27.4 181.926 27.6707 182.103 28.016C182.29 28.3613 182.383 28.7533 182.383 29.192C182.383 29.6307 182.29 30.0273 182.103 30.382C181.926 30.7273 181.678 30.998 181.361 31.194C181.053 31.39 180.694 31.488 180.283 31.488ZM185.692 33H187.526V28.534C187.526 28.0393 187.666 27.6427 187.946 27.344C188.235 27.0453 188.609 26.896 189.066 26.896C189.523 26.896 189.892 27.0453 190.172 27.344C190.461 27.6333 190.606 28.03 190.606 28.534V33H192.44V28.1C192.44 27.5307 192.319 27.0313 192.076 26.602C191.833 26.1633 191.493 25.8227 191.054 25.58C190.625 25.3373 190.13 25.216 189.57 25.216C189.094 25.216 188.665 25.3093 188.282 25.496C187.909 25.6827 187.619 25.958 187.414 26.322V25.384H185.692V33ZM197.463 33.084C197.771 33.084 198.074 33.0607 198.373 33.014V31.432C198.195 31.46 198.032 31.474 197.883 31.474C197.435 31.474 197.108 31.3713 196.903 31.166C196.697 30.9607 196.595 30.6667 196.595 30.284V27.022H198.345V25.384H196.595V23.648H194.761V24.236C194.761 24.6093 194.658 24.894 194.453 25.09C194.247 25.286 193.958 25.384 193.585 25.384H193.445V27.022H194.761V30.382C194.761 31.2313 194.994 31.894 195.461 32.37C195.937 32.846 196.604 33.084 197.463 33.084ZM202.043 33.168C203.032 33.168 203.826 32.8413 204.423 32.188V33H206.159V27.932C206.159 27.4 206.024 26.9287 205.753 26.518C205.482 26.1073 205.109 25.79 204.633 25.566C204.166 25.3327 203.62 25.216 202.995 25.216C202.23 25.216 201.548 25.398 200.951 25.762C200.354 26.126 199.943 26.6067 199.719 27.204L201.217 27.932C201.357 27.5867 201.576 27.3113 201.875 27.106C202.174 26.8913 202.524 26.784 202.925 26.784C203.345 26.784 203.681 26.896 203.933 27.12C204.194 27.3347 204.325 27.6053 204.325 27.932V28.184L202.057 28.548C201.161 28.6973 200.498 28.982 200.069 29.402C199.64 29.822 199.425 30.3493 199.425 30.984C199.425 31.656 199.663 32.188 200.139 32.58C200.615 32.972 201.25 33.168 202.043 33.168ZM201.329 30.914C201.329 30.382 201.688 30.046 202.407 29.906L204.325 29.584V29.892C204.325 30.4147 204.143 30.858 203.779 31.222C203.424 31.586 202.958 31.768 202.379 31.768C202.071 31.768 201.819 31.6933 201.623 31.544C201.427 31.3853 201.329 31.1753 201.329 30.914ZM211.522 33.168C212.073 33.168 212.581 33.0747 213.048 32.888C213.515 32.692 213.916 32.426 214.252 32.09C214.588 31.7447 214.831 31.3573 214.98 30.928L213.37 30.2C213.221 30.6013 212.983 30.9187 212.656 31.152C212.339 31.376 211.961 31.488 211.522 31.488C211.121 31.488 210.761 31.39 210.444 31.194C210.136 30.998 209.893 30.7273 209.716 30.382C209.539 30.0273 209.45 29.6307 209.45 29.192C209.45 28.744 209.539 28.3473 209.716 28.002C209.893 27.6567 210.136 27.386 210.444 27.19C210.761 26.994 211.121 26.896 211.522 26.896C211.961 26.896 212.339 27.0127 212.656 27.246C212.983 27.4793 213.221 27.7873 213.37 28.17L214.98 27.47C214.821 27.022 214.574 26.63 214.238 26.294C213.902 25.9487 213.501 25.6827 213.034 25.496C212.567 25.3093 212.063 25.216 211.522 25.216C210.766 25.216 210.085 25.3887 209.478 25.734C208.881 26.0793 208.409 26.5507 208.064 27.148C207.719 27.7453 207.546 28.422 207.546 29.178C207.546 29.934 207.719 30.6153 208.064 31.222C208.409 31.8193 208.881 32.2953 209.478 32.65C210.085 32.9953 210.766 33.168 211.522 33.168ZM219.844 33.084C220.152 33.084 220.455 33.0607 220.754 33.014V31.432C220.576 31.46 220.413 31.474 220.264 31.474C219.816 31.474 219.489 31.3713 219.284 31.166C219.078 30.9607 218.976 30.6667 218.976 30.284V27.022H220.726V25.384H218.976V23.648H217.142V24.236C217.142 24.6093 217.039 24.894 216.834 25.09C216.628 25.286 216.339 25.384 215.966 25.384H215.826V27.022H217.142V30.382C217.142 31.2313 217.375 31.894 217.842 32.37C218.318 32.846 218.985 33.084 219.844 33.084ZM224.797 33H226.701V26.182L231.657 33H233.155V22.57H231.251V29.262L226.281 22.57H224.797V33ZM238.744 33.168C239.481 33.168 240.153 33 240.76 32.664C241.367 32.3187 241.852 31.8473 242.216 31.25C242.58 30.6433 242.762 29.9573 242.762 29.192C242.762 28.4267 242.58 27.7453 242.216 27.148C241.861 26.5507 241.381 26.0793 240.774 25.734C240.167 25.3887 239.491 25.216 238.744 25.216C237.988 25.216 237.307 25.3887 236.7 25.734C236.093 26.0793 235.608 26.5507 235.244 27.148C234.889 27.7453 234.712 28.4267 234.712 29.192C234.712 29.9573 234.889 30.6387 235.244 31.236C235.608 31.8333 236.093 32.3047 236.7 32.65C237.316 32.9953 237.997 33.168 238.744 33.168ZM238.744 31.488C238.333 31.488 237.965 31.39 237.638 31.194C237.321 30.998 237.069 30.7273 236.882 30.382C236.705 30.0273 236.616 29.6307 236.616 29.192C236.616 28.7533 236.705 28.3613 236.882 28.016C237.069 27.6707 237.321 27.4 237.638 27.204C237.965 26.9987 238.333 26.896 238.744 26.896C239.155 26.896 239.514 26.9987 239.822 27.204C240.139 27.4 240.387 27.6707 240.564 28.016C240.751 28.3613 240.844 28.7533 240.844 29.192C240.844 29.6307 240.751 30.0273 240.564 30.382C240.387 30.7273 240.139 30.998 239.822 31.194C239.514 31.39 239.155 31.488 238.744 31.488ZM245.934 33H247.558L249.35 27.862L251.114 33H252.752L255.37 25.384H253.438L251.842 30.172L250.162 25.384H248.538L246.844 30.186L245.248 25.384H243.316L245.934 33Z" fill="#131126"/>
<path d="M269.977 32.6477C269.778 32.448 269.759 32.1355 269.923 31.9153L269.977 31.8523L274.829 27L269.977 22.1477C269.778 21.948 269.759 21.6355 269.923 21.4153L269.977 21.3523C270.177 21.1526 270.489 21.1344 270.71 21.2978L270.773 21.3523L276.023 26.6023C276.222 26.802 276.241 27.1145 276.077 27.3347L276.023 27.3977L270.773 32.6477C270.553 32.8674 270.197 32.8674 269.977 32.6477Z" fill="#131126"/>
</svg>
