<svg width="240" height="32" viewBox="0 0 240 32" fill="none" xmlns="http://www.w3.org/2000/svg">
<path d="M16 18.8C14.5 18.8 13.2 17.6 13.2 16C13.2 14.5 14.4 13.2 16 13.2C17.5 13.2 18.8 14.4 18.8 16C18.8 17.5 17.5 18.8 16 18.8Z" fill="#131126"/>
<path fill-rule="evenodd" clip-rule="evenodd" d="M19.4 9.2H12.6C11.8 9.3 11.4 9.4 11.1 9.5C10.7 9.6 10.4 9.8 10.1 10.1C9.86261 10.3374 9.75045 10.5748 9.61489 10.8617C9.57916 10.9373 9.5417 11.0166 9.5 11.1C9.48453 11.1464 9.46667 11.1952 9.44752 11.2475C9.34291 11.5333 9.2 11.9238 9.2 12.6V19.4C9.3 20.2 9.4 20.6 9.5 20.9C9.6 21.3 9.8 21.6 10.1 21.9C10.3374 22.1374 10.5748 22.2495 10.8617 22.3851C10.9374 22.4209 11.0165 22.4583 11.1 22.5C11.1464 22.5155 11.1952 22.5333 11.2475 22.5525C11.5333 22.6571 11.9238 22.8 12.6 22.8H19.4C20.2 22.7 20.6 22.6 20.9 22.5C21.3 22.4 21.6 22.2 21.9 21.9C22.1374 21.6626 22.2495 21.4252 22.3851 21.1383C22.4209 21.0626 22.4583 20.9835 22.5 20.9C22.5155 20.8536 22.5333 20.8048 22.5525 20.7525C22.6571 20.4667 22.8 20.0762 22.8 19.4V12.6C22.7 11.8 22.6 11.4 22.5 11.1C22.4 10.7 22.2 10.4 21.9 10.1C21.6626 9.86261 21.4252 9.75045 21.1383 9.61488C21.0627 9.57918 20.9833 9.54167 20.9 9.5C20.8536 9.48453 20.8048 9.46666 20.7525 9.44752C20.4667 9.3429 20.0762 9.2 19.4 9.2ZM16 11.7C13.6 11.7 11.7 13.6 11.7 16C11.7 18.4 13.6 20.3 16 20.3C18.4 20.3 20.3 18.4 20.3 16C20.3 13.6 18.4 11.7 16 11.7ZM21.4 11.6C21.4 12.1523 20.9523 12.6 20.4 12.6C19.8477 12.6 19.4 12.1523 19.4 11.6C19.4 11.0477 19.8477 10.6 20.4 10.6C20.9523 10.6 21.4 11.0477 21.4 11.6Z" fill="#131126"/>
<path fill-rule="evenodd" clip-rule="evenodd" d="M0 16C0 7.16344 7.16344 0 16 0C24.8366 0 32 7.16344 32 16C32 24.8366 24.8366 32 16 32C7.16344 32 0 24.8366 0 16ZM12.6 7.7H19.4C20.3 7.8 20.9 7.9 21.4 8.1C22 8.4 22.4 8.6 22.9 9.1C23.4 9.6 23.7 10.1 23.9 10.6C24.1 11.1 24.3 11.7 24.3 12.6V19.4C24.2 20.3 24.1 20.9 23.9 21.4C23.6 22 23.4 22.4 22.9 22.9C22.4 23.4 21.9 23.7 21.4 23.9C20.9 24.1 20.3 24.3 19.4 24.3H12.6C11.7 24.2 11.1 24.1 10.6 23.9C10 23.6 9.6 23.4 9.1 22.9C8.6 22.4 8.3 21.9 8.1 21.4C7.9 20.9 7.7 20.3 7.7 19.4V12.6C7.8 11.7 7.9 11.1 8.1 10.6C8.4 10 8.6 9.6 9.1 9.1C9.6 8.6 10.1 8.3 10.6 8.1C11.1 7.9 11.7 7.7 12.6 7.7Z" fill="#131126"/>
<path fill-rule="evenodd" clip-rule="evenodd" d="M52 16C52 24.8365 59.1634 32 68 32C76.8365 32 84 24.8365 84 16C84 7.16344 76.8365 0 68 0C59.1634 0 52 7.16344 52 16ZM76.2 16C76.2 18.1 74.5 19.8 72.4 19.8C70.3 19.8 68.6 18.1 68.6 16C68.6 13.9 70.3 12.2 72.4 12.2C74.5 12.2 76.2 13.9 76.2 16ZM63.7 19.8C65.8 19.8 67.5 18.1 67.5 16C67.5 13.9 65.7 12.2 63.7 12.2C61.6 12.2 59.9 13.9 59.9 16C59.9 18.1 61.6 19.8 63.7 19.8Z" fill="#131126"/>
<path d="M120 18.8C118.5 18.8 117.2 17.6 117.2 16C117.2 14.5 118.4 13.2 120 13.2C121.5 13.2 122.8 14.4 122.8 16C122.8 17.5 121.5 18.8 120 18.8Z" fill="#131126"/>
<path fill-rule="evenodd" clip-rule="evenodd" d="M123.4 9.2H116.6C115.8 9.3 115.4 9.4 115.1 9.5C114.7 9.6 114.4 9.8 114.1 10.1C113.863 10.3374 113.75 10.5748 113.615 10.8617C113.579 10.9373 113.542 11.0166 113.5 11.1C113.485 11.1464 113.467 11.1952 113.448 11.2475C113.343 11.5333 113.2 11.9238 113.2 12.6V19.4C113.3 20.2 113.4 20.6 113.5 20.9C113.6 21.3 113.8 21.6 114.1 21.9C114.337 22.1374 114.575 22.2495 114.862 22.3851C114.937 22.4209 115.017 22.4583 115.1 22.5C115.146 22.5155 115.195 22.5333 115.248 22.5525C115.533 22.6571 115.924 22.8 116.6 22.8H123.4C124.2 22.7 124.6 22.6 124.9 22.5C125.3 22.4 125.6 22.2 125.9 21.9C126.137 21.6626 126.25 21.4252 126.385 21.1383C126.421 21.0626 126.458 20.9835 126.5 20.9C126.515 20.8536 126.533 20.8048 126.552 20.7525C126.657 20.4667 126.8 20.0762 126.8 19.4V12.6C126.7 11.8 126.6 11.4 126.5 11.1C126.4 10.7 126.2 10.4 125.9 10.1C125.663 9.86261 125.425 9.75045 125.138 9.61488C125.063 9.57918 124.983 9.54167 124.9 9.5C124.854 9.48453 124.805 9.46666 124.752 9.44752C124.467 9.3429 124.076 9.2 123.4 9.2ZM120 11.7C117.6 11.7 115.7 13.6 115.7 16C115.7 18.4 117.6 20.3 120 20.3C122.4 20.3 124.3 18.4 124.3 16C124.3 13.6 122.4 11.7 120 11.7ZM125.4 11.6C125.4 12.1523 124.952 12.6 124.4 12.6C123.848 12.6 123.4 12.1523 123.4 11.6C123.4 11.0477 123.848 10.6 124.4 10.6C124.952 10.6 125.4 11.0477 125.4 11.6Z" fill="#131126"/>
<path fill-rule="evenodd" clip-rule="evenodd" d="M104 16C104 7.16344 111.163 0 120 0C128.837 0 136 7.16344 136 16C136 24.8366 128.837 32 120 32C111.163 32 104 24.8366 104 16ZM116.6 7.7H123.4C124.3 7.8 124.9 7.9 125.4 8.1C126 8.4 126.4 8.6 126.9 9.1C127.4 9.6 127.7 10.1 127.9 10.6C128.1 11.1 128.3 11.7 128.3 12.6V19.4C128.2 20.3 128.1 20.9 127.9 21.4C127.6 22 127.4 22.4 126.9 22.9C126.4 23.4 125.9 23.7 125.4 23.9C124.9 24.1 124.3 24.3 123.4 24.3H116.6C115.7 24.2 115.1 24.1 114.6 23.9C114 23.6 113.6 23.4 113.1 22.9C112.6 22.4 112.3 21.9 112.1 21.4C111.9 20.9 111.7 20.3 111.7 19.4V12.6C111.8 11.7 111.9 11.1 112.1 10.6C112.4 10 112.6 9.6 113.1 9.1C113.6 8.6 114.1 8.3 114.6 8.1C115.1 7.9 115.7 7.7 116.6 7.7Z" fill="#131126"/>
<path fill-rule="evenodd" clip-rule="evenodd" d="M156 16C156 7.16344 163.163 0 172 0C180.837 0 188 7.16344 188 16C188 24.8366 180.837 32 172 32C163.163 32 156 24.8366 156 16ZM164 16C164 11.6 167.6 8 172 8C176.4 8 180 11.6 179.9 15.6C179.9 20 176.3 23.6 171.9 23.6C171.1 23.6 170.3 23.5 169.6 23.3C169.9 22.8 170.2 22.2 170.4 21.6C170.5 21.2 171 19.4 171 19.4C171.3 19.9 172.1 20.4 173 20.4C175.6 20.4 177.3 18 177.3 14.9C177.3 12.5 175.3 10.3 172.2 10.3C168.4 10.3 166.5 13 166.5 15.3C166.5 16.7 167 17.9 168.1 18.4C168.3 18.5 168.4 18.4 168.5 18.2C168.6 18.1 168.7 17.7 168.7 17.6C168.771 17.4586 168.741 17.4172 168.683 17.3343C168.659 17.3 168.629 17.2586 168.6 17.2C168.3 16.8 168.1 16.3 168.1 15.6C168.1 13.6 169.6 11.8 172 11.8C174.1 11.8 175.3 13.1 175.3 14.9C175.3 17.3 174.3 19.2 172.8 19.2C171.9 19.2 171.3 18.5 171.5 17.7C171.583 17.2826 171.719 16.8477 171.849 16.4318C172.03 15.8514 172.2 15.3078 172.2 14.9C172.2 14.2 171.8 13.7 171.1 13.7C170.3 13.7 169.6 14.6 169.6 15.8C169.6 16.6 169.9 17.1 169.9 17.1C169.9 17.1 169.1 20.8 168.9 21.5C168.8 22.1 168.8 22.6999 168.8 23.2999C166 22.0999 164 19.3 164 16Z" fill="#131126"/>
<path fill-rule="evenodd" clip-rule="evenodd" d="M208 16C208 7.16344 215.163 0 224 0C232.837 0 240 7.16344 240 16C240 24.8366 232.837 32 224 32C215.163 32 208 24.8366 208 16ZM230.1 11.5C230.8 11.4 231.4 11.3 232 11C231.6 11.7 231 12.3 230.3 12.7C230.5 17.4 227.1 22.5 221 22.5C219.2 22.5 217.5 21.9 216 21C217.7 21.2 219.5 20.7 220.7 19.8C219.2 19.8 218 18.8 217.6 17.5C218.1 17.6 218.6 17.5 219.1 17.4C217.6 17 216.5 15.6 216.5 14.1C217 14.3 217.5 14.5 218 14.5C216.6 13.5 216.1 11.6 217 10.1C218.7 12.1 221.1 13.4 223.8 13.5C223.3 11.5 224.9 9.5 227 9.5C227.9 9.5 228.8 9.9 229.4 10.5C230.2 10.3 230.9 10.1 231.5 9.7C231.3 10.5 230.8 11.1 230.1 11.5Z" fill="#131126"/>
</svg>
