<svg width="139" height="50" viewBox="0 0 139 50" fill="none" xmlns="http://www.w3.org/2000/svg">
<rect width="139" height="50" rx="5" fill="#FAE0E1"/>
<path d="M29.908 31.168C30.6547 31.168 31.322 31.042 31.91 30.79C32.5073 30.538 33.0113 30.2067 33.422 29.796C33.8327 29.376 34.1267 28.9187 34.304 28.424L32.596 27.626C32.3907 28.1487 32.0547 28.5827 31.588 28.928C31.1307 29.264 30.5707 29.432 29.908 29.432C29.2547 29.432 28.6807 29.278 28.186 28.97C27.6913 28.662 27.304 28.2373 27.024 27.696C26.744 27.1453 26.604 26.506 26.604 25.778C26.604 25.05 26.744 24.4153 27.024 23.874C27.304 23.3233 27.6913 22.8987 28.186 22.6C28.6807 22.292 29.2547 22.138 29.908 22.138C30.5707 22.138 31.1307 22.3107 31.588 22.656C32.0547 22.992 32.3907 23.4213 32.596 23.944L34.304 23.146C34.1267 22.6513 33.8327 22.1987 33.422 21.788C33.0113 21.368 32.5073 21.032 31.91 20.78C31.322 20.528 30.6547 20.402 29.908 20.402C29.1613 20.402 28.4707 20.5373 27.836 20.808C27.2013 21.0693 26.6507 21.4427 26.184 21.928C25.7173 22.404 25.3533 22.9733 25.092 23.636C24.8307 24.2893 24.7 25.0033 24.7 25.778C24.7 26.5527 24.8307 27.2713 25.092 27.934C25.3533 28.5873 25.7173 29.1567 26.184 29.642C26.6507 30.1273 27.2013 30.5053 27.836 30.776C28.4707 31.0373 29.1613 31.168 29.908 31.168ZM39.2831 31.168C40.0204 31.168 40.6924 31 41.2991 30.664C41.9057 30.3187 42.3911 29.8473 42.7551 29.25C43.1191 28.6433 43.3011 27.9573 43.3011 27.192C43.3011 26.4267 43.1191 25.7453 42.7551 25.148C42.4004 24.5507 41.9197 24.0793 41.3131 23.734C40.7064 23.3887 40.0297 23.216 39.2831 23.216C38.5271 23.216 37.8457 23.3887 37.2391 23.734C36.6324 24.0793 36.1471 24.5507 35.7831 25.148C35.4284 25.7453 35.2511 26.4267 35.2511 27.192C35.2511 27.9573 35.4284 28.6387 35.7831 29.236C36.1471 29.8333 36.6324 30.3047 37.2391 30.65C37.8551 30.9953 38.5364 31.168 39.2831 31.168ZM39.2831 29.488C38.8724 29.488 38.5037 29.39 38.1771 29.194C37.8597 28.998 37.6077 28.7273 37.4211 28.382C37.2437 28.0273 37.1551 27.6307 37.1551 27.192C37.1551 26.7533 37.2437 26.3613 37.4211 26.016C37.6077 25.6707 37.8597 25.4 38.1771 25.204C38.5037 24.9987 38.8724 24.896 39.2831 24.896C39.6937 24.896 40.0531 24.9987 40.3611 25.204C40.6784 25.4 40.9257 25.6707 41.1031 26.016C41.2897 26.3613 41.3831 26.7533 41.3831 27.192C41.3831 27.6307 41.2897 28.0273 41.1031 28.382C40.9257 28.7273 40.6784 28.998 40.3611 29.194C40.0531 29.39 39.6937 29.488 39.2831 29.488ZM44.6919 31H46.5259V26.534C46.5259 26.0393 46.6659 25.6427 46.9459 25.344C47.2352 25.0453 47.6086 24.896 48.0659 24.896C48.5232 24.896 48.8919 25.0453 49.1719 25.344C49.4612 25.6333 49.6059 26.03 49.6059 26.534V31H51.4399V26.1C51.4399 25.5307 51.3186 25.0313 51.0759 24.602C50.8332 24.1633 50.4926 23.8227 50.0539 23.58C49.6246 23.3373 49.1299 23.216 48.5699 23.216C48.0939 23.216 47.6646 23.3093 47.2819 23.496C46.9086 23.6827 46.6192 23.958 46.4139 24.322V23.384H44.6919V31ZM56.4627 31.084C56.7707 31.084 57.0741 31.0607 57.3727 31.014V29.432C57.1954 29.46 57.0321 29.474 56.8827 29.474C56.4347 29.474 56.1081 29.3713 55.9027 29.166C55.6974 28.9607 55.5947 28.6667 55.5947 28.284V25.022H57.3447V23.384H55.5947V21.648H53.7607V22.236C53.7607 22.6093 53.6581 22.894 53.4527 23.09C53.2474 23.286 52.9581 23.384 52.5847 23.384H52.4447V25.022H53.7607V28.382C53.7607 29.2313 53.9941 29.894 54.4607 30.37C54.9367 30.846 55.6041 31.084 56.4627 31.084ZM61.0429 31.168C62.0322 31.168 62.8256 30.8413 63.4229 30.188V31H65.1589V25.932C65.1589 25.4 65.0236 24.9287 64.7529 24.518C64.4822 24.1073 64.1089 23.79 63.6329 23.566C63.1662 23.3327 62.6202 23.216 61.9949 23.216C61.2296 23.216 60.5482 23.398 59.9509 23.762C59.3536 24.126 58.9429 24.6067 58.7189 25.204L60.2169 25.932C60.3569 25.5867 60.5762 25.3113 60.8749 25.106C61.1736 24.8913 61.5236 24.784 61.9249 24.784C62.3449 24.784 62.6809 24.896 62.9329 25.12C63.1942 25.3347 63.3249 25.6053 63.3249 25.932V26.184L61.0569 26.548C60.1609 26.6973 59.4982 26.982 59.0689 27.402C58.6396 27.822 58.4249 28.3493 58.4249 28.984C58.4249 29.656 58.6629 30.188 59.1389 30.58C59.6149 30.972 60.2496 31.168 61.0429 31.168ZM60.3289 28.914C60.3289 28.382 60.6882 28.046 61.4069 27.906L63.3249 27.584V27.892C63.3249 28.4147 63.1429 28.858 62.7789 29.222C62.4242 29.586 61.9576 29.768 61.3789 29.768C61.0709 29.768 60.8189 29.6933 60.6229 29.544C60.4269 29.3853 60.3289 29.1753 60.3289 28.914ZM70.522 31.168C71.0727 31.168 71.5813 31.0747 72.048 30.888C72.5147 30.692 72.916 30.426 73.252 30.09C73.588 29.7447 73.8307 29.3573 73.98 28.928L72.37 28.2C72.2207 28.6013 71.9827 28.9187 71.656 29.152C71.3387 29.376 70.9607 29.488 70.522 29.488C70.1207 29.488 69.7613 29.39 69.444 29.194C69.136 28.998 68.8933 28.7273 68.716 28.382C68.5387 28.0273 68.45 27.6307 68.45 27.192C68.45 26.744 68.5387 26.3473 68.716 26.002C68.8933 25.6567 69.136 25.386 69.444 25.19C69.7613 24.994 70.1207 24.896 70.522 24.896C70.9607 24.896 71.3387 25.0127 71.656 25.246C71.9827 25.4793 72.2207 25.7873 72.37 26.17L73.98 25.47C73.8213 25.022 73.574 24.63 73.238 24.294C72.902 23.9487 72.5007 23.6827 72.034 23.496C71.5673 23.3093 71.0633 23.216 70.522 23.216C69.766 23.216 69.0847 23.3887 68.478 23.734C67.8807 24.0793 67.4093 24.5507 67.064 25.148C66.7187 25.7453 66.546 26.422 66.546 27.178C66.546 27.934 66.7187 28.6153 67.064 29.222C67.4093 29.8193 67.8807 30.2953 68.478 30.65C69.0847 30.9953 69.766 31.168 70.522 31.168ZM78.8436 31.084C79.1516 31.084 79.4549 31.0607 79.7536 31.014V29.432C79.5762 29.46 79.4129 29.474 79.2636 29.474C78.8156 29.474 78.4889 29.3713 78.2836 29.166C78.0782 28.9607 77.9756 28.6667 77.9756 28.284V25.022H79.7256V23.384H77.9756V21.648H76.1416V22.236C76.1416 22.6093 76.0389 22.894 75.8336 23.09C75.6282 23.286 75.3389 23.384 74.9656 23.384H74.8256V25.022H76.1416V28.382C76.1416 29.2313 76.3749 29.894 76.8416 30.37C77.3176 30.846 77.9849 31.084 78.8436 31.084ZM83.7971 31H85.7011V24.182L90.6571 31H92.1551V20.57H90.2511V27.262L85.2811 20.57H83.7971V31ZM97.744 31.168C98.4813 31.168 99.1533 31 99.76 30.664C100.367 30.3187 100.852 29.8473 101.216 29.25C101.58 28.6433 101.762 27.9573 101.762 27.192C101.762 26.4267 101.58 25.7453 101.216 25.148C100.861 24.5507 100.381 24.0793 99.774 23.734C99.1673 23.3887 98.4907 23.216 97.744 23.216C96.988 23.216 96.3067 23.3887 95.7 23.734C95.0933 24.0793 94.608 24.5507 94.244 25.148C93.8893 25.7453 93.712 26.4267 93.712 27.192C93.712 27.9573 93.8893 28.6387 94.244 29.236C94.608 29.8333 95.0933 30.3047 95.7 30.65C96.316 30.9953 96.9973 31.168 97.744 31.168ZM97.744 29.488C97.3333 29.488 96.9647 29.39 96.638 29.194C96.3207 28.998 96.0687 28.7273 95.882 28.382C95.7047 28.0273 95.616 27.6307 95.616 27.192C95.616 26.7533 95.7047 26.3613 95.882 26.016C96.0687 25.6707 96.3207 25.4 96.638 25.204C96.9647 24.9987 97.3333 24.896 97.744 24.896C98.1547 24.896 98.514 24.9987 98.822 25.204C99.1393 25.4 99.3867 25.6707 99.564 26.016C99.7507 26.3613 99.844 26.7533 99.844 27.192C99.844 27.6307 99.7507 28.0273 99.564 28.382C99.3867 28.7273 99.1393 28.998 98.822 29.194C98.514 29.39 98.1547 29.488 97.744 29.488ZM104.934 31H106.558L108.35 25.862L110.114 31H111.752L114.37 23.384H112.438L110.842 28.172L109.162 23.384H107.538L105.844 28.186L104.248 23.384H102.316L104.934 31Z" fill="#131126"/>
</svg>
