<svg width="447" height="60" viewBox="0 0 447 60" fill="none" xmlns="http://www.w3.org/2000/svg">
<mask id="mask0_1_98" style="mask-type:luminance" maskUnits="userSpaceOnUse" x="18" y="19" width="20" height="20">
<path fill-rule="evenodd" clip-rule="evenodd" d="M18 19.0004H37.499V38.4994H18V19.0004Z" fill="white"/>
</mask>
<g mask="url(#mask0_1_98)">
<path fill-rule="evenodd" clip-rule="evenodd" d="M26.8049 30.8178L30.4619 36.7508C30.6219 37.0108 30.8719 37.0078 30.9729 36.9938C31.0739 36.9798 31.3169 36.9178 31.4049 36.6228L35.9779 21.1778C36.0579 20.9048 35.9109 20.7188 35.8449 20.6528C35.7809 20.5868 35.5979 20.4458 35.3329 20.5208L19.8769 25.0468C19.5839 25.1328 19.5199 25.3788 19.5059 25.4798C19.4919 25.5828 19.4879 25.8378 19.7469 26.0008L25.7479 29.7538L31.0499 24.3958C31.3409 24.1018 31.8159 24.0988 32.1109 24.3898C32.4059 24.6808 32.4079 25.1568 32.1169 25.4508L26.8049 30.8178ZM30.8949 38.4998C30.1989 38.4998 29.5609 38.1458 29.1849 37.5378L25.3079 31.2468L18.9519 27.2718C18.2669 26.8428 17.9089 26.0788 18.0199 25.2758C18.1299 24.4728 18.6809 23.8348 19.4549 23.6078L34.9109 19.0818C35.6219 18.8738 36.3839 19.0708 36.9079 19.5928C37.4319 20.1198 37.6269 20.8898 37.4149 21.6038L32.8419 37.0478C32.6129 37.8248 31.9729 38.3738 31.1719 38.4808C31.0779 38.4928 30.9869 38.4998 30.8949 38.4998Z" fill="#131126"/>
</g>
<path d="M61.4091 36V24.3636H68.4318V25.6136H62.8182V29.5455H68.0682V30.7955H62.8182V34.75H68.5227V36H61.4091ZM70.7898 36V27.2727H72.0852V28.6364H72.1989C72.3807 28.1705 72.6742 27.8087 73.0795 27.5511C73.4848 27.2898 73.9716 27.1591 74.5398 27.1591C75.1155 27.1591 75.5947 27.2898 75.9773 27.5511C76.3636 27.8087 76.6648 28.1705 76.8807 28.6364H76.9716C77.1951 28.1856 77.5303 27.8277 77.9773 27.5625C78.4242 27.2936 78.9602 27.1591 79.5852 27.1591C80.3655 27.1591 81.0038 27.4034 81.5 27.892C81.9962 28.3769 82.2443 29.1326 82.2443 30.1591V36H80.9034V30.1591C80.9034 29.5152 80.7273 29.0549 80.375 28.7784C80.0227 28.5019 79.608 28.3636 79.1307 28.3636C78.517 28.3636 78.0417 28.5492 77.7045 28.9205C77.3674 29.2879 77.1989 29.7538 77.1989 30.3182V36H75.8352V30.0227C75.8352 29.5265 75.6742 29.1269 75.3523 28.8239C75.0303 28.517 74.6155 28.3636 74.108 28.3636C73.7595 28.3636 73.4337 28.4564 73.1307 28.642C72.8314 28.8277 72.589 29.0852 72.4034 29.4148C72.2216 29.7405 72.1307 30.1174 72.1307 30.5455V36H70.7898ZM87.2642 36.2045C86.7112 36.2045 86.2093 36.1004 85.7585 35.892C85.3078 35.6799 84.9498 35.375 84.6847 34.9773C84.4195 34.5758 84.2869 34.0909 84.2869 33.5227C84.2869 33.0227 84.3854 32.6174 84.5824 32.3068C84.7794 31.9924 85.0426 31.7462 85.3722 31.5682C85.7017 31.3902 86.0653 31.2576 86.4631 31.1705C86.8646 31.0795 87.268 31.0076 87.6733 30.9545C88.2036 30.8864 88.6335 30.8352 88.9631 30.8011C89.2964 30.7633 89.5388 30.7008 89.6903 30.6136C89.8456 30.5265 89.9233 30.375 89.9233 30.1591V30.1136C89.9233 29.553 89.7699 29.1174 89.4631 28.8068C89.16 28.4962 88.6998 28.3409 88.0824 28.3409C87.4422 28.3409 86.9403 28.4811 86.5767 28.7614C86.2131 29.0417 85.9574 29.3409 85.8097 29.6591L84.5369 29.2045C84.7642 28.6742 85.0672 28.2614 85.446 27.9659C85.8286 27.6667 86.2453 27.4583 86.696 27.3409C87.1506 27.2197 87.5975 27.1591 88.0369 27.1591C88.3172 27.1591 88.6392 27.1932 89.0028 27.2614C89.3703 27.3258 89.7244 27.4602 90.0653 27.6648C90.41 27.8693 90.696 28.178 90.9233 28.5909C91.1506 29.0038 91.2642 29.5568 91.2642 30.25V36H89.9233V34.8182H89.8551C89.7642 35.0076 89.6127 35.2102 89.4006 35.4261C89.1884 35.642 88.9063 35.8258 88.554 35.9773C88.2017 36.1288 87.7718 36.2045 87.2642 36.2045ZM87.4688 35C87.9991 35 88.446 34.8958 88.8097 34.6875C89.1771 34.4792 89.4536 34.2102 89.6392 33.8807C89.8286 33.5511 89.9233 33.2045 89.9233 32.8409V31.6136C89.8665 31.6818 89.7415 31.7443 89.5483 31.8011C89.3589 31.8542 89.1392 31.9015 88.8892 31.9432C88.643 31.9811 88.4025 32.0152 88.1676 32.0455C87.9366 32.072 87.7491 32.0947 87.6051 32.1136C87.2566 32.1591 86.9309 32.233 86.6278 32.3352C86.3286 32.4337 86.0862 32.5833 85.9006 32.7841C85.7188 32.9811 85.6278 33.25 85.6278 33.5909C85.6278 34.0568 85.8002 34.4091 86.1449 34.6477C86.4934 34.8826 86.9347 35 87.4688 35ZM93.7116 36V27.2727H95.0526V36H93.7116ZM94.3935 25.8182C94.1321 25.8182 93.9067 25.7292 93.7173 25.5511C93.5317 25.3731 93.4389 25.1591 93.4389 24.9091C93.4389 24.6591 93.5317 24.4451 93.7173 24.267C93.9067 24.089 94.1321 24 94.3935 24C94.6548 24 94.8783 24.089 95.0639 24.267C95.2533 24.4451 95.348 24.6591 95.348 24.9091C95.348 25.1591 95.2533 25.3731 95.0639 25.5511C94.8783 25.7292 94.6548 25.8182 94.3935 25.8182ZM98.8494 24.3636V36H97.5085V24.3636H98.8494ZM106.464 36H104.987L109.26 24.3636H110.714L114.987 36H113.51L110.033 26.2045H109.942L106.464 36ZM107.01 31.4545H112.964V32.7045H107.01V31.4545ZM119.913 36.1818C119.186 36.1818 118.544 35.9981 117.987 35.6307C117.43 35.2595 116.995 34.7367 116.68 34.0625C116.366 33.3845 116.209 32.5833 116.209 31.6591C116.209 30.7424 116.366 29.947 116.68 29.2727C116.995 28.5985 117.432 28.0777 117.993 27.7102C118.554 27.3428 119.201 27.1591 119.936 27.1591C120.504 27.1591 120.953 27.2538 121.283 27.4432C121.616 27.6288 121.87 27.8409 122.044 28.0795C122.222 28.3144 122.36 28.5076 122.459 28.6591H122.572V24.3636H123.913V36H122.618V34.6591H122.459C122.36 34.8182 122.22 35.0189 122.038 35.2614C121.857 35.5 121.597 35.714 121.26 35.9034C120.923 36.089 120.474 36.1818 119.913 36.1818ZM120.095 34.9773C120.633 34.9773 121.088 34.8371 121.459 34.5568C121.83 34.2727 122.112 33.8807 122.305 33.3807C122.499 32.8769 122.595 32.2955 122.595 31.6364C122.595 30.9848 122.5 30.4148 122.311 29.9261C122.122 29.4337 121.841 29.0511 121.47 28.7784C121.099 28.5019 120.641 28.3636 120.095 28.3636C119.527 28.3636 119.054 28.5095 118.675 28.8011C118.3 29.089 118.018 29.4811 117.828 29.9773C117.643 30.4697 117.55 31.0227 117.55 31.6364C117.55 32.2576 117.644 32.822 117.834 33.3295C118.027 33.8333 118.311 34.2348 118.686 34.5341C119.065 34.8295 119.535 34.9773 120.095 34.9773ZM129.851 36.1818C129.124 36.1818 128.482 35.9981 127.925 35.6307C127.368 35.2595 126.932 34.7367 126.618 34.0625C126.304 33.3845 126.146 32.5833 126.146 31.6591C126.146 30.7424 126.304 29.947 126.618 29.2727C126.932 28.5985 127.37 28.0777 127.93 27.7102C128.491 27.3428 129.139 27.1591 129.874 27.1591C130.442 27.1591 130.891 27.2538 131.22 27.4432C131.554 27.6288 131.807 27.8409 131.982 28.0795C132.16 28.3144 132.298 28.5076 132.396 28.6591H132.51V24.3636H133.851V36H132.555V34.6591H132.396C132.298 34.8182 132.158 35.0189 131.976 35.2614C131.794 35.5 131.535 35.714 131.197 35.9034C130.86 36.089 130.411 36.1818 129.851 36.1818ZM130.033 34.9773C130.571 34.9773 131.025 34.8371 131.396 34.5568C131.768 34.2727 132.05 33.8807 132.243 33.3807C132.436 32.8769 132.533 32.2955 132.533 31.6364C132.533 30.9848 132.438 30.4148 132.249 29.9261C132.059 29.4337 131.779 29.0511 131.408 28.7784C131.036 28.5019 130.578 28.3636 130.033 28.3636C129.464 28.3636 128.991 28.5095 128.612 28.8011C128.237 29.089 127.955 29.4811 127.766 29.9773C127.58 30.4697 127.487 31.0227 127.487 31.6364C127.487 32.2576 127.582 32.822 127.771 33.3295C127.964 33.8333 128.249 34.2348 128.624 34.5341C129.002 34.8295 129.472 34.9773 130.033 34.9773ZM136.493 36V27.2727H137.788V28.5909H137.879C138.038 28.1591 138.326 27.8087 138.743 27.5398C139.16 27.2708 139.629 27.1364 140.152 27.1364C140.25 27.1364 140.374 27.1383 140.521 27.142C140.669 27.1458 140.781 27.1515 140.857 27.1591V28.5227C140.811 28.5114 140.707 28.4943 140.544 28.4716C140.385 28.4451 140.216 28.4318 140.038 28.4318C139.614 28.4318 139.235 28.5208 138.902 28.6989C138.572 28.8731 138.311 29.1155 138.118 29.4261C137.929 29.733 137.834 30.0833 137.834 30.4773V36H136.493ZM145.839 36.1818C144.999 36.1818 144.273 35.9962 143.663 35.625C143.057 35.25 142.589 34.7273 142.26 34.0568C141.934 33.3826 141.771 32.5985 141.771 31.7045C141.771 30.8106 141.934 30.0227 142.26 29.3409C142.589 28.6553 143.048 28.1212 143.635 27.7386C144.226 27.3523 144.915 27.1591 145.703 27.1591C146.158 27.1591 146.607 27.2348 147.05 27.3864C147.493 27.5379 147.896 27.7841 148.26 28.125C148.624 28.4621 148.913 28.9091 149.129 29.4659C149.345 30.0227 149.453 30.7083 149.453 31.5227V32.0909H142.726V30.9318H148.089C148.089 30.4394 147.991 30 147.794 29.6136C147.601 29.2273 147.324 28.9223 146.964 28.6989C146.608 28.4754 146.188 28.3636 145.703 28.3636C145.169 28.3636 144.707 28.4962 144.317 28.7614C143.93 29.0227 143.633 29.3636 143.425 29.7841C143.216 30.2045 143.112 30.6553 143.112 31.1364V31.9091C143.112 32.5682 143.226 33.1269 143.453 33.5852C143.684 34.0398 144.004 34.3864 144.413 34.625C144.822 34.8598 145.298 34.9773 145.839 34.9773C146.192 34.9773 146.51 34.928 146.794 34.8295C147.082 34.7273 147.33 34.5758 147.538 34.375C147.747 34.1705 147.908 33.9167 148.021 33.6136L149.317 33.9773C149.18 34.4167 148.951 34.803 148.629 35.1364C148.307 35.4659 147.91 35.7235 147.436 35.9091C146.963 36.0909 146.43 36.1818 145.839 36.1818ZM157.675 29.2273L156.47 29.5682C156.394 29.3674 156.283 29.1723 156.135 28.983C155.991 28.7898 155.794 28.6307 155.544 28.5057C155.294 28.3807 154.974 28.3182 154.584 28.3182C154.05 28.3182 153.605 28.4413 153.249 28.6875C152.896 28.9299 152.72 29.2386 152.72 29.6136C152.72 29.947 152.841 30.2102 153.084 30.4034C153.326 30.5966 153.705 30.7576 154.22 30.8864L155.516 31.2045C156.296 31.3939 156.877 31.6837 157.26 32.0739C157.643 32.4602 157.834 32.9583 157.834 33.5682C157.834 34.0682 157.69 34.5152 157.402 34.9091C157.118 35.303 156.72 35.6136 156.209 35.8409C155.697 36.0682 155.103 36.1818 154.425 36.1818C153.535 36.1818 152.798 35.9886 152.214 35.6023C151.631 35.2159 151.262 34.6515 151.107 33.9091L152.379 33.5909C152.5 34.0606 152.73 34.4129 153.067 34.6477C153.408 34.8826 153.853 35 154.402 35C155.027 35 155.523 34.8674 155.891 34.6023C156.262 34.3333 156.447 34.0114 156.447 33.6364C156.447 33.3333 156.341 33.0795 156.129 32.875C155.917 32.6667 155.591 32.5114 155.152 32.4091L153.697 32.0682C152.898 31.8788 152.311 31.5852 151.936 31.1875C151.565 30.786 151.379 30.2841 151.379 29.6818C151.379 29.1894 151.518 28.7538 151.794 28.375C152.074 27.9962 152.455 27.6989 152.936 27.483C153.421 27.267 153.97 27.1591 154.584 27.1591C155.447 27.1591 156.125 27.3485 156.618 27.7273C157.114 28.1061 157.466 28.6061 157.675 29.2273ZM166.034 29.2273L164.83 29.5682C164.754 29.3674 164.642 29.1723 164.494 28.983C164.35 28.7898 164.153 28.6307 163.903 28.5057C163.653 28.3807 163.333 28.3182 162.943 28.3182C162.409 28.3182 161.964 28.4413 161.608 28.6875C161.256 28.9299 161.08 29.2386 161.08 29.6136C161.08 29.947 161.201 30.2102 161.443 30.4034C161.686 30.5966 162.064 30.7576 162.58 30.8864L163.875 31.2045C164.655 31.3939 165.237 31.6837 165.619 32.0739C166.002 32.4602 166.193 32.9583 166.193 33.5682C166.193 34.0682 166.049 34.5152 165.761 34.9091C165.477 35.303 165.08 35.6136 164.568 35.8409C164.057 36.0682 163.462 36.1818 162.784 36.1818C161.894 36.1818 161.157 35.9886 160.574 35.6023C159.991 35.2159 159.621 34.6515 159.466 33.9091L160.739 33.5909C160.86 34.0606 161.089 34.4129 161.426 34.6477C161.767 34.8826 162.212 35 162.761 35C163.386 35 163.883 34.8674 164.25 34.6023C164.621 34.3333 164.807 34.0114 164.807 33.6364C164.807 33.3333 164.701 33.0795 164.489 32.875C164.277 32.6667 163.951 32.5114 163.511 32.4091L162.057 32.0682C161.258 31.8788 160.67 31.5852 160.295 31.1875C159.924 30.786 159.739 30.2841 159.739 29.6818C159.739 29.1894 159.877 28.7538 160.153 28.375C160.434 27.9962 160.814 27.6989 161.295 27.483C161.78 27.267 162.33 27.1591 162.943 27.1591C163.807 27.1591 164.485 27.3485 164.977 27.7273C165.473 28.1061 165.826 28.6061 166.034 29.2273Z" fill="#131126"/>
<rect x="0.5" y="0.5" width="446" height="59" rx="4.5" stroke="#D0D0D0"/>
</svg>
