<svg width="447" height="60" viewBox="0 0 447 60" fill="none" xmlns="http://www.w3.org/2000/svg">
<path fill-rule="evenodd" clip-rule="evenodd" d="M27.8889 28.6188H27.9209C30.8489 28.6188 33.2299 26.2378 33.2299 23.3098C33.2299 20.3818 30.8489 17.9998 27.9209 17.9998C24.9919 17.9998 22.6099 20.3818 22.6099 23.3068C22.5999 26.2268 24.9669 28.6098 27.8889 28.6188ZM24.0379 23.3098C24.0379 21.1688 25.7799 19.4278 27.9209 19.4278C30.0609 19.4278 31.8019 21.1688 31.8019 23.3098C31.8019 25.4498 30.0609 27.1918 27.9209 27.1918H27.8919C25.7599 27.1838 24.0309 25.4438 24.0379 23.3098Z" fill="#131126"/>
<path fill-rule="evenodd" clip-rule="evenodd" d="M19.9999 34.1731C19.9999 37.8701 25.9619 37.8701 27.9209 37.8701C31.3199 37.8701 35.8399 37.4891 35.8399 34.1931C35.8399 30.4961 29.8799 30.4961 27.9209 30.4961C24.5209 30.4961 19.9999 30.8771 19.9999 34.1731ZM21.4999 34.1731C21.4999 32.7281 23.6599 31.9961 27.9209 31.9961C32.1809 31.9961 34.3399 32.7351 34.3399 34.1931C34.3399 35.6381 32.1809 36.3701 27.9209 36.3701C23.6599 36.3701 21.4999 35.6311 21.4999 34.1731Z" fill="#131126"/>
<path d="M61.4091 36V24.3636H68.3864V25.6136H62.8182V29.5455H67.8636V30.7955H62.8182V36H61.4091ZM75.571 32.4318V27.2727H76.9119V36H75.571V34.5227H75.4801C75.2756 34.9659 74.9574 35.3428 74.5256 35.6534C74.0938 35.9602 73.5483 36.1136 72.8892 36.1136C72.3438 36.1136 71.8589 35.9943 71.4347 35.7557C71.0104 35.5133 70.6771 35.1496 70.4347 34.6648C70.1922 34.1761 70.071 33.5606 70.071 32.8182V27.2727H71.4119V32.7273C71.4119 33.3636 71.59 33.8712 71.946 34.25C72.3059 34.6288 72.7642 34.8182 73.321 34.8182C73.6544 34.8182 73.9934 34.733 74.3381 34.5625C74.6866 34.392 74.9782 34.1307 75.2131 33.7784C75.4517 33.4261 75.571 32.9773 75.571 32.4318ZM80.7088 24.3636V36H79.3679V24.3636H80.7088ZM84.5057 24.3636V36H83.1648V24.3636H84.5057ZM100.871 24.3636V36H99.5071L93.1662 26.8636H93.0526V36H91.6435V24.3636H93.0071L99.3707 33.5227H99.4844V24.3636H100.871ZM106.077 36.2045C105.524 36.2045 105.022 36.1004 104.571 35.892C104.12 35.6799 103.762 35.375 103.497 34.9773C103.232 34.5758 103.099 34.0909 103.099 33.5227C103.099 33.0227 103.198 32.6174 103.395 32.3068C103.592 31.9924 103.855 31.7462 104.185 31.5682C104.514 31.3902 104.878 31.2576 105.276 31.1705C105.677 31.0795 106.08 31.0076 106.486 30.9545C107.016 30.8864 107.446 30.8352 107.776 30.8011C108.109 30.7633 108.351 30.7008 108.503 30.6136C108.658 30.5265 108.736 30.375 108.736 30.1591V30.1136C108.736 29.553 108.582 29.1174 108.276 28.8068C107.973 28.4962 107.512 28.3409 106.895 28.3409C106.255 28.3409 105.753 28.4811 105.389 28.7614C105.026 29.0417 104.77 29.3409 104.622 29.6591L103.349 29.2045C103.577 28.6742 103.88 28.2614 104.259 27.9659C104.641 27.6667 105.058 27.4583 105.509 27.3409C105.963 27.2197 106.41 27.1591 106.849 27.1591C107.13 27.1591 107.452 27.1932 107.815 27.2614C108.183 27.3258 108.537 27.4602 108.878 27.6648C109.223 27.8693 109.509 28.178 109.736 28.5909C109.963 29.0038 110.077 29.5568 110.077 30.25V36H108.736V34.8182H108.668C108.577 35.0076 108.425 35.2102 108.213 35.4261C108.001 35.642 107.719 35.8258 107.366 35.9773C107.014 36.1288 106.584 36.2045 106.077 36.2045ZM106.281 35C106.812 35 107.259 34.8958 107.622 34.6875C107.99 34.4792 108.266 34.2102 108.452 33.8807C108.641 33.5511 108.736 33.2045 108.736 32.8409V31.6136C108.679 31.6818 108.554 31.7443 108.361 31.8011C108.171 31.8542 107.952 31.9015 107.702 31.9432C107.455 31.9811 107.215 32.0152 106.98 32.0455C106.749 32.072 106.562 32.0947 106.418 32.1136C106.069 32.1591 105.743 32.233 105.44 32.3352C105.141 32.4337 104.899 32.5833 104.713 32.7841C104.531 32.9811 104.44 33.25 104.44 33.5909C104.44 34.0568 104.613 34.4091 104.957 34.6477C105.306 34.8826 105.747 35 106.281 35ZM112.524 36V27.2727H113.82V28.6364H113.933C114.115 28.1705 114.409 27.8087 114.814 27.5511C115.219 27.2898 115.706 27.1591 116.274 27.1591C116.85 27.1591 117.329 27.2898 117.712 27.5511C118.098 27.8087 118.399 28.1705 118.615 28.6364H118.706C118.929 28.1856 119.265 27.8277 119.712 27.5625C120.159 27.2936 120.695 27.1591 121.32 27.1591C122.1 27.1591 122.738 27.4034 123.234 27.892C123.731 28.3769 123.979 29.1326 123.979 30.1591V36H122.638V30.1591C122.638 29.5152 122.462 29.0549 122.109 28.7784C121.757 28.5019 121.342 28.3636 120.865 28.3636C120.251 28.3636 119.776 28.5492 119.439 28.9205C119.102 29.2879 118.933 29.7538 118.933 30.3182V36H117.57V30.0227C117.57 29.5265 117.409 29.1269 117.087 28.8239C116.765 28.517 116.35 28.3636 115.842 28.3636C115.494 28.3636 115.168 28.4564 114.865 28.642C114.566 28.8277 114.323 29.0852 114.138 29.4148C113.956 29.7405 113.865 30.1174 113.865 30.5455V36H112.524ZM130.089 36.1818C129.249 36.1818 128.523 35.9962 127.913 35.625C127.307 35.25 126.839 34.7273 126.51 34.0568C126.184 33.3826 126.021 32.5985 126.021 31.7045C126.021 30.8106 126.184 30.0227 126.51 29.3409C126.839 28.6553 127.298 28.1212 127.885 27.7386C128.476 27.3523 129.165 27.1591 129.953 27.1591C130.408 27.1591 130.857 27.2348 131.3 27.3864C131.743 27.5379 132.146 27.7841 132.51 28.125C132.874 28.4621 133.163 28.9091 133.379 29.4659C133.595 30.0227 133.703 30.7083 133.703 31.5227V32.0909H126.976V30.9318H132.339C132.339 30.4394 132.241 30 132.044 29.6136C131.851 29.2273 131.574 28.9223 131.214 28.6989C130.858 28.4754 130.438 28.3636 129.953 28.3636C129.419 28.3636 128.957 28.4962 128.567 28.7614C128.18 29.0227 127.883 29.3636 127.675 29.7841C127.466 30.2045 127.362 30.6553 127.362 31.1364V31.9091C127.362 32.5682 127.476 33.1269 127.703 33.5852C127.934 34.0398 128.254 34.3864 128.663 34.625C129.072 34.8598 129.548 34.9773 130.089 34.9773C130.442 34.9773 130.76 34.928 131.044 34.8295C131.332 34.7273 131.58 34.5758 131.788 34.375C131.997 34.1705 132.158 33.9167 132.271 33.6136L133.567 33.9773C133.43 34.4167 133.201 34.803 132.879 35.1364C132.557 35.4659 132.16 35.7235 131.686 35.9091C131.213 36.0909 130.68 36.1818 130.089 36.1818Z" fill="#131126"/>
<rect x="0.5" y="0.5" width="446" height="59" rx="4.5" stroke="#D0D0D0"/>
</svg>
